HIERARCHY
ROOT Hips
{
  OFFSET 0.000 82.102 0.000
  CHANNELS 6 Xposition Yposition Zposition Zrotation Xrotation Yrotation
  JOINT LeftUpLeg
  {
    OFFSET 8.703 1.718 2.699
    CHANNELS 6 Xposition Yposition Zposition Zrotation Xrotation Yrotation
    JOINT LeftLeg
    {
      OFFSET 0.000 -45.940 0.000
      CHANNELS 6 Xposition Yposition Zposition Zrotation Xrotation Yrotation
      JOINT LeftFoot
      {
        OFFSET 0.000 -37.880 0.000
        CHANNELS 6 Xposition Yposition Zposition Zrotation Xrotation Yrotation
        End Site
        {
          OFFSET 0.000 0.000 12.475
        }
      }
    }
  }
  JOINT RightUpLeg
  {
    OFFSET -8.703 1.718 2.699
    CHANNELS 6 Xposition Yposition Zposition Zrotation Xrotation Yrotation
    JOINT RightLeg
    {
      OFFSET 0.000 -45.940 0.000
      CHANNELS 6 Xposition Yposition Zposition Zrotation Xrotation Yrotation
      JOINT RightFoot
      {
        OFFSET 0.000 -37.880 0.000
        CHANNELS 6 Xposition Yposition Zposition Zrotation Xrotation Yrotation
        End Site
        {
          OFFSET 0.000 0.000 12.475
        }
      }
    }
  }
  JOINT Spine
  {
    OFFSET 0.000 26.981 0.000
    CHANNELS 6 Xposition Yposition Zposition Zrotation Xrotation Yrotation
    JOINT Spine1
    {
      OFFSET 0.000 20.235 0.000
      CHANNELS 6 Xposition Yposition Zposition Zrotation Xrotation Yrotation
      JOINT LeftShoulder
      {
        OFFSET 1.574 -0.293 -0.028
        CHANNELS 6 Xposition Yposition Zposition Zrotation Xrotation Yrotation
        JOINT LeftArm
        {
          OFFSET 14.617 0.000 0.000
          CHANNELS 6 Xposition Yposition Zposition Zrotation Xrotation Yrotation
          JOINT LeftForeArm
          {
            OFFSET 27.418 0.000 0.000
            CHANNELS 6 Xposition Yposition Zposition Zrotation Xrotation Yrotation
            JOINT LeftHand
            {
              OFFSET 25.099 0.000 0.000
              CHANNELS 6 Xposition Yposition Zposition Zrotation Xrotation Yrotation
              JOINT LeftHandThumb1
              {
                OFFSET 4.877 -1.044 3.608
                CHANNELS 6 Xposition Yposition Zposition Zrotation Xrotation Yrotation
                JOINT LeftHandThumb2
                {
                  OFFSET 2.665 -0.000 -0.000
                  CHANNELS 6 Xposition Yposition Zposition Zrotation Xrotation Yrotation
                  JOINT LeftHandThumb3
                  {
                    OFFSET 2.543 -0.000 0.000
                    CHANNELS 6 Xposition Yposition Zposition Zrotation Xrotation Yrotation
                    End Site
                    {
                      OFFSET 2.667 0.000 0.000
                    }
                  }
                }
              }
              JOINT LeftHandIndex1
              {
                OFFSET 9.232 -0.301 2.144
                CHANNELS 6 Xposition Yposition Zposition Zrotation Xrotation Yrotation
                JOINT LeftHandIndex2
                {
                  OFFSET 4.225 -0.000 -0.000
                  CHANNELS 6 Xposition Yposition Zposition Zrotation Xrotation Yrotation
                  JOINT LeftHandIndex3
                  {
                    OFFSET 2.654 0.000 0.000
                    CHANNELS 6 Xposition Yposition Zposition Zrotation Xrotation Yrotation
                    End Site
                    {
                      OFFSET 1.958 -0.000 -0.000
                    }
                  }
                }
              }
              JOINT LeftHandMiddle1
              {
                OFFSET 8.920 0.000 0.000
                CHANNELS 6 Xposition Yposition Zposition Zrotation Xrotation Yrotation
                JOINT LeftHandMiddle2
                {
                  OFFSET 4.863 -0.000 -0.000
                  CHANNELS 6 Xposition Yposition Zposition Zrotation Xrotation Yrotation
                  JOINT LeftHandMiddle3
                  {
                    OFFSET 2.765 -0.000 0.000
                    CHANNELS 6 Xposition Yposition Zposition Zrotation Xrotation Yrotation
                    End Site
                    {
                      OFFSET 2.006 0.000 -0.000
                    }
                  }
                }
              }
              JOINT LeftHandRing1
              {
                OFFSET 8.689 -0.126 -2.087
                CHANNELS 6 Xposition Yposition Zposition Zrotation Xrotation Yrotation
                JOINT LeftHandRing2
                {
                  OFFSET 4.538 0.000 0.000
                  CHANNELS 6 Xposition Yposition Zposition Zrotation Xrotation Yrotation
                  JOINT LeftHandRing3
                  {
                    OFFSET 2.305 -0.000 0.000
                    CHANNELS 6 Xposition Yposition Zposition Zrotation Xrotation Yrotation
                    End Site
                    {
                      OFFSET 1.923 0.000 0.000
                    }
                  }
                }
              }
              JOINT LeftHandPinky1
              {
                OFFSET 8.391 -0.817 -3.758
                CHANNELS 6 Xposition Yposition Zposition Zrotation Xrotation Yrotation
                JOINT LeftHandPinky2
                {
                  OFFSET 3.044 0.000 -0.000
                  CHANNELS 6 Xposition Yposition Zposition Zrotation Xrotation Yrotation
                  JOINT LeftHandPinky3
                  {
                    OFFSET 1.975 0.000 0.000
                    CHANNELS 6 Xposition Yposition Zposition Zrotation Xrotation Yrotation
                    End Site
                    {
                      OFFSET 1.667 0.000 0.000
                    }
                  }
                }
              }
            }
          }
        }
      }
      JOINT RightShoulder
      {
        OFFSET -1.574 -0.293 -0.028
        CHANNELS 6 Xposition Yposition Zposition Zrotation Xrotation Yrotation
        JOINT RightArm
        {
          OFFSET -14.617 0.000 0.000
          CHANNELS 6 Xposition Yposition Zposition Zrotation Xrotation Yrotation
          JOINT RightForeArm
          {
            OFFSET -27.418 0.000 0.000
            CHANNELS 6 Xposition Yposition Zposition Zrotation Xrotation Yrotation
            JOINT RightHand
            {
              OFFSET -25.099 0.000 0.000
              CHANNELS 6 Xposition Yposition Zposition Zrotation Xrotation Yrotation
              JOINT RightHandThumb1
              {
                OFFSET -4.877 -1.044 3.608
                CHANNELS 6 Xposition Yposition Zposition Zrotation Xrotation Yrotation
                JOINT RightHandThumb2
                {
                  OFFSET -2.665 -0.000 0.000
                  CHANNELS 6 Xposition Yposition Zposition Zrotation Xrotation Yrotation
                  JOINT RightHandThumb3
                  {
                    OFFSET -2.543 -0.000 -0.000
                    CHANNELS 6 Xposition Yposition Zposition Zrotation Xrotation Yrotation
                    End Site
                    {
                      OFFSET -2.667 0.000 -0.000
                    }
                  }
                }
              }
              JOINT RightHandIndex1
              {
                OFFSET -9.232 -0.301 2.144
                CHANNELS 6 Xposition Yposition Zposition Zrotation Xrotation Yrotation
                JOINT RightHandIndex2
                {
                  OFFSET -4.225 0.000 0.000
                  CHANNELS 6 Xposition Yposition Zposition Zrotation Xrotation Yrotation
                  JOINT RightHandIndex3
                  {
                    OFFSET -2.654 -0.000 -0.000
                    CHANNELS 6 Xposition Yposition Zposition Zrotation Xrotation Yrotation
                    End Site
                    {
                      OFFSET -1.958 0.000 0.000
                    }
                  }
                }
              }
              JOINT RightHandMiddle1
              {
                OFFSET -8.920 0.000 0.000
                CHANNELS 6 Xposition Yposition Zposition Zrotation Xrotation Yrotation
                JOINT RightHandMiddle2
                {
                  OFFSET -4.863 -0.000 -0.000
                  CHANNELS 6 Xposition Yposition Zposition Zrotation Xrotation Yrotation
                  JOINT RightHandMiddle3
                  {
                    OFFSET -2.765 -0.000 0.000
                    CHANNELS 6 Xposition Yposition Zposition Zrotation Xrotation Yrotation
                    End Site
                    {
                      OFFSET -2.006 0.000 -0.000
                    }
                  }
                }
              }
              JOINT RightHandRing1
              {
                OFFSET -8.689 -0.126 -2.087
                CHANNELS 6 Xposition Yposition Zposition Zrotation Xrotation Yrotation
                JOINT RightHandRing2
                {
                  OFFSET -4.538 0.000 0.000
                  CHANNELS 6 Xposition Yposition Zposition Zrotation Xrotation Yrotation
                  JOINT RightHandRing3
                  {
                    OFFSET -2.305 -0.000 0.000
                    CHANNELS 6 Xposition Yposition Zposition Zrotation Xrotation Yrotation
                    End Site
                    {
                      OFFSET -1.923 0.000 0.000
                    }
                  }
                }
              }
              JOINT RightHandPinky1
              {
                OFFSET -8.391 -0.817 -3.758
                CHANNELS 6 Xposition Yposition Zposition Zrotation Xrotation Yrotation
                JOINT RightHandPinky2
                {
                  OFFSET -3.044 0.000 0.000
                  CHANNELS 6 Xposition Yposition Zposition Zrotation Xrotation Yrotation
                  JOINT RightHandPinky3
                  {
                    OFFSET -1.975 0.000 0.000
                    CHANNELS 6 Xposition Yposition Zposition Zrotation Xrotation Yrotation
                    End Site
                    {
                      OFFSET -1.667 0.000 -0.000
                    }
                  }
                }
              }
            }
          }
        }
      }
      JOINT Neck
      {
        OFFSET 0.000 0.713 0.000
        CHANNELS 6 Xposition Yposition Zposition Zrotation Xrotation Yrotation
        JOINT Head
        {
          OFFSET 0.000 6.394 0.000
          CHANNELS 6 Xposition Yposition Zposition Zrotation Xrotation Yrotation
          End Site
          {
            OFFSET 0.000 15.180 0.000
          }
        }
      }
    }
  }
}
MOTION
Frames:	4
Frame Time:	0.033333
-26.29484 -19.32197 -235.86407 -60.74212 5.87652 -20.32816 8.18301 2.67233 3.22122 -124.40228 -71.27370 151.38969 -0.00173 -46.06709 0.00276 -65.93920 -9.60608 125.56224 -0.00059 -39.71625 -0.00290 -8.93887 18.99168 25.79545 -8.50078 0.15303 3.21807 -106.71519 -64.09357 168.01974 -0.00222 -63.88210 -0.00167 -112.94998 0.69701 73.70019 -0.00203 -44.06066 0.00189 -2.83974 23.94655 7.07168 -0.00905 27.22942 0.00107 0.08474 2.24457 -7.16893 0.00194 20.32623 -0.00177 -0.21573 2.76687 -6.97371 0.79812 0.25454 0.48782 12.96651 -7.74912 -30.35294 8.78917 0.00028 -0.00050 -28.25634 -3.32579 -36.21226 24.66386 0.00005 0.00265 8.80283 8.51270 5.98998 24.14779 0.00040 0.00143 -1.84017 16.72496 -0.30730 4.87700 -1.04400 3.60800 -38.84882 -18.17665 4.02960 2.66501 -0.00001 -0.00000 0.00000 0.00000 5.00000 2.54300 -0.00001 0.00000 0.00000 -0.00000 60.00000 9.23200 -0.30100 2.14400 2.00000 0.00000 -0.00000 4.22499 -0.00000 -0.00001 2.00000 0.00000 -0.00000 2.65400 0.00001 0.00001 2.00000 -0.00001 -0.00000 8.91999 0.00001 0.00001 -80.00000 -0.00000 0.00001 4.86300 -0.00001 -0.00000 -90.00000 -0.00000 0.00000 2.76499 -0.00000 0.00000 -69.99999 0.00000 0.00001 8.68899 -0.12600 -2.08700 -80.00000 -0.00000 0.00001 4.53800 0.00001 0.00000 -90.00000 -0.00000 0.00000 2.30500 -0.00001 0.00001 -69.99999 0.00000 0.00001 8.39099 -0.81700 -3.75800 2.00000 0.00000 -0.00000 3.04401 0.00000 -0.00000 2.00000 0.00000 -0.00000 1.97499 0.00000 0.00000 2.00000 -0.00001 -0.00000 -1.78017 -0.36835 0.48667 10.77309 2.93045 15.03971 -16.97985 0.00194 -0.00091 35.04697 9.03734 63.81031 -29.68558 0.01509 -0.02871 -0.04673 10.12881 1.10002 -27.84227 -0.02880 -0.03787 -0.17178 15.90349 2.02423 -4.87698 -1.04400 3.60801 24.66570 4.20854 9.07947 -2.66500 -0.00001 0.00000 0.00000 0.00000 -10.00000 -2.54300 -0.00001 -0.00001 0.00000 0.00001 -15.00000 -9.23199 -0.30100 2.14401 20.00000 -0.00000 0.00000 -4.22500 0.00000 0.00001 25.00001 -0.00000 0.00000 -2.65400 -0.00001 -0.00002 29.90551 2.49762 4.33288 -8.91999 0.00000 0.00000 20.00000 -0.00000 0.00000 -4.86299 -0.00001 -0.00001 25.00001 -0.00000 0.00000 -2.76500 -0.00001 0.00000 29.90551 2.49762 4.33288 -8.68899 -0.12600 -2.08700 20.00000 -0.00000 0.00000 -4.53801 0.00001 0.00001 25.00001 -0.00000 0.00000 -2.30500 -0.00001 0.00001 29.90551 2.49762 4.33288 -8.39100 -0.81700 -3.75799 20.00000 -0.00000 0.00000 -3.04401 0.00001 0.00000 25.00001 -0.00000 0.00000 -1.97500 0.00000 0.00001 29.90551 2.49762 4.33288 0.00001 0.67675 -0.00001 0.00001 -0.00004 -0.00001 -0.00489 6.10556 0.00950 -33.24007 -31.20569 -157.78098 
-26.29484 -19.33753 -235.86407 -60.73909 5.88158 -20.41001 8.18301 2.67233 3.22122 -124.52175 -71.31940 151.21452 -0.00173 -46.06709 0.00276 -65.93821 -9.64434 125.61478 -0.00059 -39.76232 -0.00290 -8.93887 18.99168 25.79545 -8.50078 0.15303 3.21807 -106.79413 -64.17536 167.84296 -0.00222 -63.88697 -0.00167 -112.91663 0.53819 73.50175 -0.00203 -44.09575 0.00189 -3.06063 24.13485 7.51762 -0.00905 27.22942 0.00107 0.08365 2.24471 -7.14109 0.00194 20.32623 -0.00177 -0.21711 2.76704 -6.94505 0.79812 0.25454 0.48782 13.00072 -7.77014 -30.35202 8.77709 0.00028 -0.00050 -28.22938 -3.30794 -36.16954 24.66386 0.00005 0.00265 8.75075 8.57275 5.85014 24.14779 0.00040 0.00143 -2.34793 17.13786 0.24827 4.87700 -1.04400 3.60800 -38.84882 -18.17665 4.02960 2.66501 -0.00001 -0.00000 0.00000 0.00000 5.00000 2.54300 -0.00001 0.00000 0.00000 -0.00000 60.00000 9.23200 -0.30100 2.14400 2.00000 0.00000 -0.00000 4.22499 -0.00000 -0.00001 2.00000 0.00000 -0.00000 2.65400 0.00001 0.00001 2.00000 -0.00001 -0.00000 8.91999 0.00001 0.00001 -80.00000 -0.00000 0.00001 4.86300 -0.00001 -0.00000 -90.00000 -0.00000 0.00000 2.76499 -0.00000 0.00000 -69.99999 0.00000 0.00001 8.68899 -0.12600 -2.08700 -80.00000 -0.00000 0.00001 4.53800 0.00001 0.00000 -90.00000 -0.00000 0.00000 2.30500 -0.00001 0.00001 -69.99999 0.00000 0.00001 8.39099 -0.81700 -3.75800 2.00000 0.00000 -0.00000 3.04401 0.00000 -0.00000 2.00000 0.00000 -0.00000 1.97499 0.00000 0.00000 2.00000 -0.00001 -0.00000 -1.78017 -0.36835 0.48667 10.75106 2.92629 15.04948 -16.94106 0.00194 -0.00091 35.56142 8.88071 64.06625 -29.07276 -0.04768 0.16840 -0.60540 10.46772 -0.47448 -28.19715 -0.12269 0.08059 0.32881 16.02479 3.74612 -4.87698 -1.04400 3.60801 24.66570 4.20854 9.07947 -2.66500 -0.00001 0.00000 0.00000 0.00000 -10.00000 -2.54300 -0.00001 -0.00001 0.00000 0.00001 -15.00000 -9.23199 -0.30100 2.14401 20.00000 -0.00000 0.00000 -4.22500 0.00000 0.00001 25.00001 -0.00000 0.00000 -2.65400 -0.00001 -0.00002 29.90551 2.49762 4.33288 -8.91999 0.00000 0.00000 20.00000 -0.00000 0.00000 -4.86299 -0.00001 -0.00001 25.00001 -0.00000 0.00000 -2.76500 -0.00001 0.00000 29.90551 2.49762 4.33288 -8.68899 -0.12600 -2.08700 20.00000 -0.00000 0.00000 -4.53801 0.00001 0.00001 25.00001 -0.00000 0.00000 -2.30500 -0.00001 0.00001 29.90551 2.49762 4.33288 -8.39100 -0.81700 -3.75799 20.00000 -0.00000 0.00000 -3.04401 0.00001 0.00000 25.00001 -0.00000 0.00000 -1.97500 0.00000 0.00001 29.90551 2.49762 4.33288 0.00001 0.67675 -0.00001 0.00001 -0.00004 -0.00001 -0.00489 6.10556 0.00950 -33.20786 -31.20923 -157.17818 
-26.29484 -19.35140 -235.86407 -60.74104 5.89167 -20.48258 8.18301 2.67233 3.22122 -124.62951 -71.36306 151.05109 -0.00173 -46.06753 0.00276 -65.93336 -9.68113 125.65874 -0.00059 -39.71956 -0.00290 -8.94170 18.99721 25.79637 -8.50078 0.15303 3.21807 -106.86398 -64.24731 167.67981 -0.00222 -63.92199 -0.00167 -112.92912 0.39713 73.38431 -0.00203 -44.14236 0.00599 -3.22652 24.10092 7.93349 -0.00905 27.22942 0.00107 0.08232 2.24245 -7.11479 0.00194 20.32623 -0.00177 -0.21694 2.76720 -6.91818 0.79812 0.25454 0.48782 13.04144 -7.80331 -30.37665 8.76181 0.00028 -0.00050 -28.21128 -3.29038 -36.11459 24.66386 0.00005 0.00265 8.68607 8.57537 5.80387 24.14779 0.00040 0.00143 -2.45246 17.24684 0.36631 4.87700 -1.04400 3.60800 -38.84882 -18.17665 4.02960 2.66501 -0.00001 -0.00000 0.00000 0.00000 5.00000 2.54300 -0.00001 0.00000 0.00000 -0.00000 60.00000 9.23200 -0.30100 2.14400 2.00000 0.00000 -0.00000 4.22499 -0.00000 -0.00001 2.00000 0.00000 -0.00000 2.65400 0.00001 0.00001 2.00000 -0.00001 -0.00000 8.91999 0.00001 0.00001 -80.00000 -0.00000 0.00001 4.86300 -0.00001 -0.00000 -90.00000 -0.00000 0.00000 2.76499 -0.00000 0.00000 -69.99999 0.00000 0.00001 8.68899 -0.12600 -2.08700 -80.00000 -0.00000 0.00001 4.53800 0.00001 0.00000 -90.00000 -0.00000 0.00000 2.30500 -0.00001 0.00001 -69.99999 0.00000 0.00001 8.39099 -0.81700 -3.75800 2.00000 0.00000 -0.00000 3.04401 0.00000 -0.00000 2.00000 0.00000 -0.00000 1.97499 0.00000 0.00000 2.00000 -0.00001 -0.00000 -1.78017 -0.36835 0.48667 10.74064 2.92168 15.04055 -16.93151 0.00194 -0.00091 36.01838 8.79407 64.21770 -28.81335 -0.08192 0.19024 -0.95414 10.57894 -1.13030 -28.33277 -0.12282 0.10547 0.62912 16.12874 4.52970 -4.87698 -1.04400 3.60801 24.66570 4.20854 9.07947 -2.66500 -0.00001 0.00000 0.00000 0.00000 -10.00000 -2.54300 -0.00001 -0.00001 0.00000 0.00001 -15.00000 -9.23199 -0.30100 2.14401 20.00000 -0.00000 0.00000 -4.22500 0.00000 0.00001 25.00001 -0.00000 0.00000 -2.65400 -0.00001 -0.00002 29.90551 2.49762 4.33288 -8.91999 0.00000 0.00000 20.00000 -0.00000 0.00000 -4.86299 -0.00001 -0.00001 25.00001 -0.00000 0.00000 -2.76500 -0.00001 0.00000 29.90551 2.49762 4.33288 -8.68899 -0.12600 -2.08700 20.00000 -0.00000 0.00000 -4.53801 0.00001 0.00001 25.00001 -0.00000 0.00000 -2.30500 -0.00001 0.00001 29.90551 2.49762 4.33288 -8.39100 -0.81700 -3.75799 20.00000 -0.00000 0.00000 -3.04401 0.00001 0.00000 25.00001 -0.00000 0.00000 -1.97500 0.00000 0.00001 29.90551 2.49762 4.33288 0.00001 0.67675 -0.00001 0.00001 -0.00004 -0.00001 -0.00489 6.10556 0.00950 -33.12571 -31.22941 -156.53543 
-26.29484 -19.36209 -235.86346 -60.74207 5.90124 -20.52188 8.18315 2.67233 3.21840 -124.69427 -71.38551 150.93173 -0.00173 -46.06832 0.00276 -65.92275 -9.72422 125.70070 -0.00059 -39.71323 -0.00290 -8.94678 19.00352 25.80214 -8.50078 0.15303 3.21807 -106.93881 -64.29393 167.52310 -0.00222 -63.62850 -0.00051 -112.46801 0.27017 73.43715 -0.00827 -44.00451 -0.04042 -4.08037 23.63815 9.85188 -0.00905 27.22942 0.00107 0.08169 2.24015 -7.10624 0.00194 20.32623 -0.00177 -0.21554 2.76647 -6.90934 0.79812 0.25454 0.48782 13.08541 -7.83524 -30.39089 8.74841 0.00028 -0.00050 -28.19834 -3.25830 -36.04372 24.66386 0.00005 0.00265 8.54575 8.44932 6.06396 24.14779 0.00040 0.00143 -2.00267 16.67160 -0.89002 4.87700 -1.04400 3.60800 -38.84882 -18.17665 4.02960 2.66501 -0.00001 -0.00000 0.00000 0.00000 5.00000 2.54300 -0.00001 0.00000 0.00000 -0.00000 60.00000 9.23200 -0.30100 2.14400 2.00000 0.00000 -0.00000 4.22499 -0.00000 -0.00001 2.00000 0.00000 -0.00000 2.65400 0.00001 0.00001 2.00000 -0.00001 -0.00000 8.91999 0.00001 0.00001 -80.00000 -0.00000 0.00001 4.86300 -0.00001 -0.00000 -90.00000 -0.00000 0.00000 2.76499 -0.00000 0.00000 -69.99999 0.00000 0.00001 8.68899 -0.12600 -2.08700 -80.00000 -0.00000 0.00001 4.53800 0.00001 0.00000 -90.00000 -0.00000 0.00000 2.30500 -0.00001 0.00001 -69.99999 0.00000 0.00001 8.39099 -0.81700 -3.75800 2.00000 0.00000 -0.00000 3.04401 0.00000 -0.00000 2.00000 0.00000 -0.00000 1.97499 0.00000 0.00000 2.00000 -0.00001 -0.00000 -1.78516 -0.36835 0.48667 10.73006 2.90735 14.98395 -16.97713 0.00194 -0.00091 36.14550 8.78154 64.09818 -28.67915 -0.02451 -0.00483 -1.35412 10.03278 -1.13018 -28.46255 -0.18414 0.27716 1.47094 15.38824 5.11778 -4.87698 -1.04400 3.60801 24.66570 4.20854 9.07947 -2.66500 -0.00001 0.00000 0.00000 0.00000 -10.00000 -2.54300 -0.00001 -0.00001 0.00000 0.00001 -15.00000 -9.23199 -0.30100 2.14401 20.00000 -0.00000 0.00000 -4.22500 0.00000 0.00001 25.00001 -0.00000 0.00000 -2.65400 -0.00001 -0.00002 29.90551 2.49762 4.33288 -8.91999 0.00000 0.00000 20.00000 -0.00000 0.00000 -4.86299 -0.00001 -0.00001 25.00001 -0.00000 0.00000 -2.76500 -0.00001 0.00000 29.90551 2.49762 4.33288 -8.68899 -0.12600 -2.08700 20.00000 -0.00000 0.00000 -4.53801 0.00001 0.00001 25.00001 -0.00000 0.00000 -2.30500 -0.00001 0.00001 29.90551 2.49762 4.33288 -8.39100 -0.81700 -3.75799 20.00000 -0.00000 0.00000 -3.04401 0.00001 0.00000 25.00001 -0.00000 0.00000 -1.97500 0.00000 0.00001 29.90551 2.49762 4.33288 0.00001 0.67675 -0.00001 0.00001 -0.00004 -0.00001 -0.00489 6.10556 0.00950 -33.06968 -31.25988 -155.94748 
